<?xml version="1.0" encoding="UTF-8"?>
<svg id="Layer_3" xmlns="http://www.w3.org/2000/svg" viewBox="0 0 188 188">
  <defs>
    <style>
      .cls-1 {
        fill: #080808;
      }
    </style>
  </defs>
  <path class="cls-1" d="M42.58,101.17c5.86,3.85,12.53-.66,18.41-3.52,4.36-2.29,8.16-4.12,11.87-6.15,7.52-4.2,16.74-9.2,14.31-19.46-2.37-7.38-13.18-13.93-20.36-16-6.78-1.64-15.26-3.09-21.71.1-7.48,4.28-6.33,18.45-6.38,26.82.36,5.41-.36,14.4,3.74,18.13l.12.1Z"/>
  <path class="cls-1" d="M125.83,95.74c-7.11-1.91-15.43-4.89-20.17-10.62-4.73-5.57-6.36-14.79-.05-19.81,2.93-2.52,6.57-4.23,9.91-6.18,4.91-2.7,10.02-5.52,15.39-6.03,16.75-1.35,17.86,12.28,17.42,25.66-.71,21.56-11.85,19.84-22.5,16.99Z"/>
  <path class="cls-1" d="M93.5,98.83c-2.32-4.45-7.37,1.55-10.12,2.83-6.61,4.34-18.68,7.13-20.98,15.46-.97,5.59,2.2,11.31,4.34,16.39,3.57,8.68,9.01,9.16,14.57,1.71,5.11-7.34,6.99-16.36,10.06-24.63,1.09-3.62,3.12-7.87,2.18-11.61l-.05-.14Z"/>
  <g>
    <path class="cls-1" d="M103.22,100.61s.1-.04.15-.06c-.01-.12.04-.06-.15.06Z"/>
    <path class="cls-1" d="M128.31,114.67c-.62-4.09-3.22-7.18-6.64-9.74-3.94-2.92-8.13-5.62-12.82-7.12-4.39-1.53-8.88-.22-7.64,4.59.98,3.73,3.22,7.17,4.6,10.78,2.63,6.33,5.3,12.73,8.18,19.01,1.07,2.23,2.72,5.18,5.26,5.52,7.91-.07,10-16.79,9.09-22.85l-.03-.19ZM103.37,100.55c-.05.02-.11.04-.15.06.19-.12.14-.18.15-.06Z"/>
  </g>
</svg>