<?xml version="1.0" encoding="UTF-8"?>
<svg id="Layer_3" xmlns="http://www.w3.org/2000/svg" viewBox="0 0 87.3 82">
  <defs>
    <style>
      .cls-1 {
        fill: #F23A29;
      }
    </style>
  </defs>
  <path class="cls-1" d="M87.29,64.3c-.03-5.35-.41-10.66-.68-16-.09-1.22-.24-2.48-.89-3.49-1.39-2.15-4.71-1.71-6.47-3.79-1.68-1.85-1.41-4.94.47-6.55,1.7-1.5,4.07-1.84,5.06-3.59,1.09-2,.5-4.72.44-7.03-.14-2.25-.28-4.49-.43-6.74-.66-13.8-2.32-19.26-17.46-16.34-5.1.76-11.4.61-16.19.55-2.68.03-2.91,1.89-2.92,5.06.01,2.31-.11,5.01-1.25,6.92-1.81,3.37-6.71,2.75-8.23-.66-1.9-3.07.12-8.48-2.68-10.72-1-.74-2.63-.89-3.98-.9-6.3,0-12.63.07-18.91.64-2.59.28-5.27.78-7.53,2.12C1.32,6.22.2,11.45.17,16.08.03,21.42-.02,26.8,0,32.15c.01,1.27.19,2.76.86,3.74,1.69,2.63,5.7,1.35,8.35,2.82,3.04,1.38,3.5,5.81.86,7.84-2.32,2.32-6.83.91-8.84,3.03-.77.92-.85,2.45-.82,3.74.18,4.67.35,9.34.77,13.99.39,3.86,1.09,8.19,4.19,10.83,3.15,2.7,7.61,2.55,11.55,2.57,7.26-.09,14.49.87,21.86,1.24,7.55.62,3.83-5.43,6.23-9.96,1.65-3.52,6.02-3.63,7.96-.22,1.72,2.34,1.08,6.39,2.23,8.42,1.64,2.49,5.22,1.42,7.84,1.34,12.42-1.44,24.72-1.41,24.25-17.01v-.23ZM22.28,45.35c-2.75-2.56-1.98-8.35-2.05-12.15.14-2.25.34-4.67,1.65-6.55,6.11-7.52,28.34,3.65,17.37,12.41-2.84,2.18-6,3.59-9.21,5.27-2.37,1.23-5.73,2.56-7.62,1.13l-.14-.1ZM44.31,49.64c-1.55,4.23-2.45,9.35-5.84,12.65-2.91,2.81-5.22-.33-6.53-3.81-1.15-2.79-1.68-5.78.32-8.01,2.06-2.31,5.22-3.35,7.78-4.94,5.01-3.48,6.06-1.02,4.33,3.9l-.06.2ZM56.67,61.91c-1.36-.32-2.2-1.88-2.8-3.09-1.65-3.55-3.06-7.19-4.63-10.69-.57-1.34-1.24-3.52.43-4.26,3.66-1.03,10.5,3.89,11.16,7.57.58,2.9-.22,10.37-4.01,10.49l-.16-.03ZM69.93,35.35c-.28,6.58-3.29,9.96-9.92,7.94-3.74-.98-8.12-2.64-10.16-6.11-1.33-2.17-1.51-5.11.15-7.15,2.8-3,6.71-4.88,10.67-6.01,7.88-1.63,9.67,4.87,9.27,11.12v.21Z"/>
</svg>