<?xml version="1.0" encoding="UTF-8"?>
<svg id="Layer_3" xmlns="http://www.w3.org/2000/svg" viewBox="0 0 1229 188">
  <defs>
    <style>
      .cls-1 {
        fill: #F23A29;
      }
    </style>
  </defs>
  <g>
    <path class="cls-1" d="M203.84,119.72v-56.53h14.45v43.2h27.07v13.33h-41.52Z"/>
    <path class="cls-1" d="M254.55,119.72l22.68-56.53h14.69l22.44,56.53h-15.57l-2.79-7.99h-23.08l-2.88,7.99h-15.49ZM277.46,98.72h13.97l-6.87-19.4-7.11,19.4Z"/>
    <path class="cls-1" d="M325.69,119.72v-56.53h14.45v21.96h20.52v-21.96h14.45v56.53h-14.45v-21.32h-20.52v21.32h-14.45Z"/>
    <path class="cls-1" d="M410.1,120.36c-2.93,0-5.68-.35-8.27-1.04s-4.87-1.88-6.87-3.55c-2-1.68-3.55-3.94-4.67-6.79-1.12-2.85-1.68-6.43-1.68-10.74h14.37c0,1.17.12,2.42.36,3.75.24,1.33.82,2.47,1.76,3.43.93.96,2.44,1.44,4.51,1.44,1.65,0,2.89-.32,3.71-.96.83-.64,1.38-1.45,1.68-2.44.29-.98.44-2.01.44-3.07v-37.21h14.45v36.17c0,3.51-.41,6.58-1.24,9.18-.83,2.61-2.08,4.79-3.75,6.55-1.68,1.76-3.74,3.08-6.19,3.95-2.45.88-5.32,1.32-8.62,1.32Z"/>
    <path class="cls-1" d="M472.22,120.36c-5.75,0-10.78-1.2-15.09-3.59s-7.65-5.76-10.02-10.1c-2.37-4.34-3.55-9.38-3.55-15.13s1.22-11.03,3.67-15.37c2.45-4.34,5.85-7.71,10.22-10.1,4.36-2.4,9.42-3.59,15.17-3.59s10.7,1.17,15.01,3.51c4.31,2.34,7.69,5.66,10.14,9.94,2.45,4.29,3.67,9.36,3.67,15.21s-1.21,10.82-3.63,15.21-5.83,7.83-10.22,10.3c-4.39,2.48-9.52,3.71-15.37,3.71ZM472.54,106.71c3.41,0,6.15-.79,8.22-2.36s3.58-3.53,4.51-5.87c.93-2.34,1.4-4.66,1.4-6.95,0-1.7-.25-3.45-.76-5.23-.51-1.78-1.3-3.45-2.4-4.99-1.09-1.54-2.54-2.79-4.35-3.75-1.81-.96-4.05-1.44-6.71-1.44-3.35,0-6.07.76-8.15,2.28-2.08,1.52-3.59,3.45-4.55,5.79-.96,2.34-1.44,4.77-1.44,7.27s.49,4.92,1.48,7.27c.98,2.34,2.53,4.26,4.63,5.75,2.1,1.49,4.8,2.24,8.1,2.24Z"/>
    <path class="cls-1" d="M534.1,120.36c-2.93,0-5.68-.35-8.26-1.04-2.58-.69-4.87-1.88-6.87-3.55-2-1.68-3.55-3.94-4.67-6.79-1.12-2.85-1.68-6.43-1.68-10.74h14.37c0,1.17.12,2.42.36,3.75.24,1.33.83,2.47,1.76,3.43.93.96,2.44,1.44,4.51,1.44,1.65,0,2.89-.32,3.71-.96.82-.64,1.38-1.45,1.68-2.44.29-.98.44-2.01.44-3.07v-37.21h14.45v36.17c0,3.51-.41,6.58-1.24,9.18-.83,2.61-2.08,4.79-3.75,6.55-1.68,1.76-3.74,3.08-6.19,3.95-2.45.88-5.32,1.32-8.62,1.32Z"/>
    <path class="cls-1" d="M570.67,119.72v-56.53h42.64v13.41h-28.19v8.62h23.24v12.78h-23.24v8.38h28.19v13.33h-42.64Z"/>
    <path class="cls-1" d="M627.29,119.72v-56.53h13.5l23.88,32.34v-32.34h14.45v56.53h-13.1l-24.28-31.86v31.86h-14.45Z"/>
    <path class="cls-1" d="M725.74,119.72v-56.53h18.29l13.81,24.75,13.73-24.75h17.57v56.53h-14.45v-36.01l-14.29,24.83h-5.67l-14.53-24.83v36.01h-14.45Z"/>
    <path class="cls-1" d="M800.48,119.72l22.68-56.53h14.69l22.44,56.53h-15.57l-2.79-7.99h-23.08l-2.87,7.99h-15.49ZM823.4,98.72h13.97l-6.87-19.4-7.11,19.4Z"/>
    <path class="cls-1" d="M865.88,119.72l22.68-56.53h14.69l22.44,56.53h-15.57l-2.79-7.99h-23.08l-2.87,7.99h-15.49ZM888.8,98.72h13.97l-6.87-19.4-7.11,19.4Z"/>
    <path class="cls-1" d="M937.03,119.72v-56.53h14.45v56.53h-14.45Z"/>
    <path class="cls-1" d="M968.57,119.72v-56.53h14.45v43.2h27.07v13.33h-41.52Z"/>
    <path class="cls-1" d="M1023.43,119.72v-56.53h18.29l13.81,24.75,13.73-24.75h17.57v56.53h-14.45v-36.01l-14.29,24.83h-5.67l-14.53-24.83v36.01h-14.45Z"/>
    <path class="cls-1" d="M1098.17,119.72l22.68-56.53h14.69l22.44,56.53h-15.57l-2.79-7.99h-23.08l-2.88,7.99h-15.49ZM1121.08,98.72h13.97l-6.87-19.4-7.11,19.4Z"/>
  </g>
  <path class="cls-1" d="M158.32,117.3c-.03-5.35-.41-10.66-.68-16-.09-1.22-.24-2.48-.89-3.49-1.39-2.15-4.71-1.71-6.47-3.79-1.68-1.85-1.41-4.94.47-6.55,1.7-1.5,4.07-1.84,5.06-3.59,1.09-2,.5-4.72.44-7.03-.14-2.25-.28-4.49-.43-6.74-.66-13.8-2.32-19.26-17.46-16.34-5.1.76-11.4.61-16.19.55-2.68.03-2.91,1.89-2.92,5.06.01,2.31-.11,5.01-1.25,6.92-1.81,3.37-6.71,2.75-8.23-.66-1.9-3.07.12-8.48-2.68-10.72-1-.74-2.63-.89-3.98-.9-6.3,0-12.63.07-18.91.64-2.59.28-5.27.78-7.53,2.12-4.35,2.44-5.47,7.67-5.5,12.3-.14,5.34-.18,10.72-.16,16.07.01,1.27.19,2.76.86,3.74,1.69,2.63,5.7,1.35,8.35,2.82,3.04,1.38,3.5,5.81.86,7.84-2.32,2.32-6.83.91-8.84,3.03-.77.92-.85,2.45-.82,3.74.18,4.67.35,9.34.77,13.99.39,3.86,1.09,8.19,4.19,10.83,3.15,2.7,7.61,2.55,11.55,2.57,7.26-.09,14.49.87,21.86,1.24,7.55.62,3.83-5.43,6.23-9.96,1.65-3.52,6.02-3.63,7.96-.22,1.72,2.34,1.08,6.39,2.23,8.42,1.64,2.49,5.22,1.42,7.84,1.34,12.42-1.44,24.72-1.41,24.25-17.01v-.23ZM93.3,98.35c-2.75-2.56-1.98-8.35-2.05-12.15.14-2.25.34-4.67,1.65-6.55,6.11-7.52,28.34,3.65,17.37,12.41-2.84,2.18-6,3.59-9.21,5.27-2.37,1.23-5.73,2.56-7.62,1.13l-.14-.1ZM115.34,102.64c-1.55,4.23-2.45,9.35-5.84,12.65-2.91,2.81-5.22-.33-6.53-3.81-1.15-2.79-1.68-5.78.32-8.01,2.06-2.31,5.22-3.35,7.78-4.94,5.01-3.48,6.06-1.02,4.33,3.9l-.06.2ZM127.7,114.91c-1.36-.32-2.2-1.88-2.8-3.09-1.65-3.55-3.06-7.19-4.63-10.69-.57-1.34-1.24-3.52.43-4.26,3.66-1.03,10.5,3.89,11.16,7.57.58,2.9-.22,10.37-4.01,10.49l-.16-.03ZM140.95,88.35c-.28,6.58-3.29,9.96-9.92,7.94-3.74-.98-8.12-2.64-10.16-6.11-1.33-2.17-1.51-5.11.15-7.15,2.8-3,6.71-4.88,10.67-6.01,7.88-1.63,9.67,4.87,9.27,11.12v.21Z"/>
</svg>